<?xml version="1.0" encoding="UTF-8"?>
<!DOCTYPE svg PUBLIC "-//W3C//DTD SVG 1.1//EN" "http://www.w3.org/Graphics/SVG/1.1/DTD/svg11.dtd">
<!-- Creator: CorelDRAW 2019 (64-Bit) -->
<svg xmlns="http://www.w3.org/2000/svg" xml:space="preserve" width="5.71554in" height="0.920201in" version="1.1" style="shape-rendering:geometricPrecision; text-rendering:geometricPrecision; image-rendering:optimizeQuality; fill-rule:evenodd; clip-rule:evenodd"
viewBox="0 0 1757.3 282.93"
 xmlns:xlink="http://www.w3.org/1999/xlink"
 xmlns:xodm="http://www.corel.com/coreldraw/odm/2003">
 <defs>
  <style type="text/css">
   <![CDATA[
    .fil0 {fill:#E31E52}
    .fil1 {fill:#FCFEFF}
   ]]>
  </style>
 </defs>
 <g id="Layer_x0020_1">
  <metadata id="CorelCorpID_0Corel-Layer"/>
  <g id="_2438441148976">
   <path class="fil0" d="M2.91 51.27l49.69 119.75c5.17,12.45 16.33,23.09 36.63,17.14l13.62 -3.99c13.15,-3.86 20.24,-17.31 15.2,-38.21l-29.78 -123.62c-4.67,-19.4 -18.67,-26.81 -41.09,-19.66l-26.71 8.51c-18.95,6.04 -24.58,23.16 -17.56,40.09z"/>
   <circle class="fil0" cx="114.22" cy="245.76" r="37.17"/>
   <path class="fil0" d="M124.37 77.98l4.98 18.89c3.1,11.73 11.38,21.37 32.93,15.48 21.49,-5.67 40.26,5.08 46.7,24.79 6.52,19.95 -2.04,39.78 -26.12,48.87 -14.69,5.43 -19.4,17.85 -15.53,27.7l7.85 20.02c4.7,11.98 19.2,17.67 37.47,9.29 40.61,-18.62 74.5,-71.47 57.65,-122.35 -18.32,-55.32 -70.89,-83.19 -127.47,-69.5 -15.91,3.85 -21.24,16.32 -18.47,26.8z"/>
   <path class="fil1" d="M376.58 45.98l36.08 0c2.35,0 4.26,1.92 4.26,4.26l0 47.03c12.98,-7.21 25.16,-11.21 40.54,-10.01 35.04,5.7 59.48,30.61 59.48,71.53 0,63.59 -30.05,94.35 -140.36,77.08 -2.35,0 -4.26,-1.92 -4.26,-4.26l0 -181.36c0,-2.35 1.92,-4.26 4.26,-4.26zm40.34 84.77l0 66.99c6.61,2.36 13.93,3.04 23.15,3.04 16.39,-0.78 34.51,-11.73 34.51,-36.95 0,-20.98 -13.81,-37.37 -33.92,-40.13 -10.72,-0.65 -18.33,2.7 -23.74,7.05z"/>
   <path class="fil1" d="M545.93 87.97l36.08 0c2.35,0 4.26,1.92 4.26,4.26l0 81.15c0,18.32 9.08,30.36 28.07,30.36 12.11,0 19.91,-5.86 23.41,-14.01l0 -97.5c0,-2.35 1.92,-4.26 4.26,-4.26l36.08 0c2.35,0 4.26,1.92 4.26,4.26l0 107.51c0,4.08 3.62,6.08 7.85,7.61 2.64,1.06 4.22,2.06 3.7,5.4 -1.2,7.41 -2.24,14.84 -3.6,22.22 -0.49,2.63 -1.89,3.47 -5,3.7 -17.86,1.36 -34.18,0 -43.14,-14.81 -14.54,10.76 -30.58,16.26 -49.12,16.26 -34.48,0 -51.37,-26.47 -51.37,-66.74l0 -81.15c0,-2.35 1.92,-4.26 4.26,-4.26z"/>
   <path class="fil1" d="M722.08 46.96l36.08 0c2.35,0 4.26,1.92 4.26,4.26l0 104.67 43.87 -62.46c1.77,-2.52 5.28,-4.58 7.8,-4.58l38.76 0c2.52,0 3.13,2.06 1.36,4.58l-50.1 71.33 53.63 70.14c1.87,2.45 1.16,4.58 -1.36,4.58l-38.76 0c-2.52,0 -5.91,-2.15 -7.8,-4.58l-42.54 -54.84 -4.85 0 0 55.9c0,2.35 -1.92,4.26 -4.26,4.26l-36.08 0c-2.35,0 -4.26,-1.92 -4.26,-4.26l0 -184.74c0,-2.35 1.92,-4.26 4.26,-4.26z"/>
   <rect class="fil1" x="1041.31" y="46.96" width="44.6" height="193.27" rx="4.26" ry="4.34"/>
   <path class="fil1" d="M959.31 136.26c0,-12.05 -5.94,-19.72 -22.23,-18.91 -13.52,1.6 -27.07,2.98 -40.57,4.8 -3.24,0.44 -5.67,-0.16 -6.81,-3.6 -2.32,-7.02 -4.79,-14.01 -6.94,-21.09 -1.07,-3.52 0.14,-6.53 5.07,-7.21 37.84,-5.18 58.48,-7.98 75.91,-3.91 32,7.48 40.17,30.45 40.17,49.92l0 65.63c0,3.34 3.11,4.5 8.1,5.71 2.96,0.72 3.79,2.8 3.34,5.87 -1.1,7.38 -2.2,14.76 -3.2,22.15 -0.34,2.49 -1.77,3.5 -4.27,3.74 -20.64,1.95 -35.86,-2.54 -43.94,-16.16 -15.04,11.22 -31.53,17.39 -49.75,16.49 -28.24,-1.39 -46.01,-16.1 -46.58,-49.12 -0.57,-33.16 24.23,-54.4 91.7,-54.3zm0 57.24l0 -30.6c-26.61,2.13 -45.05,8.7 -45.67,24.96 0,12.08 9.23,18.29 23.08,18.29 12.15,0 17.8,-5.18 22.59,-12.65z"/>
   <path class="fil1" d="M1287.27 279.06l36.08 0c2.35,0 4.26,-1.92 4.26,-4.26l0 -47.03c12.98,7.21 25.16,11.21 40.54,10.01 35.04,-5.7 59.48,-30.61 59.48,-71.53 0,-63.59 -30.05,-94.35 -140.36,-77.08 -2.35,0 -4.26,1.92 -4.26,4.26l0 181.36c0,2.35 1.92,4.26 4.26,4.26zm40.34 -84.77l0 -66.99c6.61,-2.36 13.93,-3.04 23.15,-3.04 16.39,0.78 34.51,11.73 34.51,36.95 0,20.98 -13.81,37.37 -33.92,40.13 -10.72,0.65 -18.33,-2.7 -23.74,-7.05z"/>
   <path class="fil1" d="M1620.59 46.96l36.08 0c2.35,0 4.26,1.92 4.26,4.26l0 104.67 43.87 -62.46c1.77,-2.52 5.28,-4.58 7.8,-4.58l38.76 0c2.52,0 3.13,2.06 1.36,4.58l-50.1 71.33 53.63 70.14c1.87,2.45 1.16,4.58 -1.36,4.58l-38.76 0c-2.52,0 -5.91,-2.15 -7.8,-4.58l-42.54 -54.84 -4.85 0 0 55.9c0,2.35 -1.92,4.26 -4.26,4.26l-36.08 0c-2.35,0 -4.26,-1.92 -4.26,-4.26l0 -184.74c0,-2.35 1.92,-4.26 4.26,-4.26z"/>
   <path class="fil1" d="M1200.89 136.26c0,-12.05 -5.94,-19.72 -22.23,-18.91 -13.52,1.6 -27.07,2.98 -40.57,4.8 -3.24,0.44 -5.67,-0.16 -6.81,-3.6 -2.32,-7.02 -4.79,-14.01 -6.94,-21.09 -1.07,-3.52 0.14,-6.53 5.07,-7.21 37.84,-5.18 58.48,-7.98 75.91,-3.91 32,7.48 40.17,30.45 40.17,49.92l0 65.63c0,3.34 3.11,4.5 8.1,5.71 2.96,0.72 3.79,2.8 3.34,5.87 -1.1,7.38 -2.2,14.76 -3.2,22.15 -0.34,2.49 -1.77,3.5 -4.27,3.74 -20.64,1.95 -35.86,-2.54 -43.94,-16.16 -15.04,11.22 -31.53,17.39 -49.75,16.49 -28.24,-1.39 -46.01,-16.1 -46.58,-49.12 -0.57,-33.16 24.23,-54.4 91.7,-54.3zm0 57.24l0 -30.6c-26.61,2.13 -45.05,8.7 -45.67,24.96 0,12.08 9.23,18.29 23.08,18.29 12.15,0 17.8,-5.18 22.59,-12.65z"/>
   <path class="fil1" d="M1580.5 136.26l0 65.63c0,3.34 3.11,4.5 8.1,5.71 2.96,0.72 3.79,2.8 3.34,5.87 -1.1,7.38 -2.2,14.76 -3.2,22.15 -0.34,2.49 -1.77,3.5 -4.27,3.74 -20.64,1.95 -35.86,-2.54 -43.94,-16.16 -15.04,11.22 -31.53,17.39 -49.75,16.49 -28.24,-1.39 -46.01,-16.1 -46.58,-49.12 -0.57,-33.16 24.23,-54.4 91.7,-54.3 0,-12.05 -5.94,-19.72 -22.23,-18.91 -13.52,1.6 -27.07,2.98 -40.57,4.8 -3.24,0.44 -5.67,-0.16 -6.81,-3.6 -2.32,-7.02 -4.79,-14.01 -6.94,-21.09 -1.07,-3.52 0.14,-6.53 5.07,-7.21 37.84,-5.18 58.48,-7.98 75.91,-3.91 32,7.48 40.17,30.45 40.17,49.92zm-44.6 57.24l0 -30.6c-26.61,2.13 -45.05,8.7 -45.67,24.96 0,12.08 9.23,18.29 23.08,18.29 12.15,0 17.8,-5.18 22.59,-12.65z"/>
  </g>
 </g>
</svg>
