<?xml version="1.0" encoding="UTF-8"?>
<!DOCTYPE svg PUBLIC "-//W3C//DTD SVG 1.1//EN" "http://www.w3.org/Graphics/SVG/1.1/DTD/svg11.dtd">
<!-- Creator: CorelDRAW 2019 (64-Bit) -->
<svg xmlns="http://www.w3.org/2000/svg" xml:space="preserve" width="6.23694in" height="1.96627in" version="1.1" style="shape-rendering:geometricPrecision; text-rendering:geometricPrecision; image-rendering:optimizeQuality; fill-rule:evenodd; clip-rule:evenodd"
viewBox="0 0 1242.84 391.82"
 xmlns:xlink="http://www.w3.org/1999/xlink"
 xmlns:xodm="http://www.corel.com/coreldraw/odm/2003">
 <defs>
  <style type="text/css">
   <![CDATA[
    .fil0 {fill:#2391EE}
   ]]>
  </style>
 </defs>
 <g id="Layer_x0020_1">
  <metadata id="CorelCorpID_0Corel-Layer"/>
  <g id="_2284144013152">
   <path class="fil0" d="M162.68 0c89.85,0 162.68,72.83 162.68,162.68 0,70.27 -44.56,130.12 -106.96,152.87l0.03 0.01c-10.45,5.28 -27.64,16.58 -27.64,29.11 0,10.97 -5.69,20.53 -14.09,25.47l0 5.63c0,4.93 -4.03,8.95 -8.95,8.95l-7.25 0c-4.92,0 -8.95,-4.03 -8.95,-8.95l0 -5.03c-8.99,-4.75 -15.17,-14.64 -15.17,-26.08l0 -204.27c28.12,0 53.21,21.01 53.21,50.9l0 75.14c46.16,-11.94 80.25,-53.87 80.25,-103.76 0,-59.19 -47.98,-107.17 -107.17,-107.17 -59.19,0 -107.17,47.98 -107.17,107.17 0,35.08 16.86,66.22 42.91,85.77l-0 -0 0.08 0.06c0.31,0.24 0.63,0.46 0.95,0.69 18.24,13.55 23,29.54 23,47.04l0 24.1c-70.38,-17.91 -122.44,-81.7 -122.44,-157.66 0,-89.85 72.83,-162.68 162.68,-162.68z"/>
   <path class="fil0" d="M784.72 221.6c17.8,0 34.25,6.07 47.6,16.36 1.66,-7.18 8.13,-12.57 15.79,-12.57l30.96 0 0 161.36 -47.16 0 0 -10.96c-13.27,10.09 -29.57,16.04 -47.19,16.04 -44.6,0 -80.76,-38.1 -80.76,-85.11 0,-47 36.16,-85.11 80.76,-85.11zm47.19 74.45l0 14.47c-3.23,20 -19.64,35.22 -39.41,35.22 -22.08,0 -39.99,-19 -39.99,-42.45 0,-23.44 17.9,-42.45 39.99,-42.45 19.76,0 36.17,15.22 39.41,35.22z"/>
   <path class="fil0" d="M372.7 160.4c15.59,0 28.23,11.9 28.23,26.58 0,14.68 -12.64,26.58 -28.23,26.58 -15.59,0 -28.23,-11.9 -28.23,-26.58 0,-14.68 12.64,-26.58 28.23,-26.58zm-25.46 63.95c25.16,0 47.61,0.28 47.61,40.46l0 121.92 -47.61 0 0 -162.38z"/>
   <path class="fil0" d="M416.44 225.39l25.24 0c9.73,0 18.04,6.43 20.88,15.25 15.06,-13.95 41.73,-24.12 67.09,-14.23 26.03,10.15 44.55,33.41 44.55,77.01l0 83.32 -22.13 0c-12.06,0 -25.03,-13.5 -25.03,-25.55l0 -57.77c0,-24.49 -11.99,-36.93 -27.94,-36.93 -20.02,0 -35.49,16.24 -35.49,33.66l0 64.68c0,12.06 -9.86,21.92 -21.92,21.92l-25.24 0 0 -161.36z"/>
   <path class="fil0" d="M607.1 190.83l31.56 0c8.57,0 15.58,7.01 15.58,15.58l0 18.71 7.21 0c20.93,0 28.73,15.32 28.73,33.77l0 9.13 -35.95 0 0 60.77c0,9.75 4.7,17.38 20.34,15.45 17.77,-2.83 25.27,11.34 28.87,35.07 -24.28,11.34 -48.76,17.34 -72.27,2.66 -22.5,-14.06 -24.07,-32.62 -24.07,-53.18l0 -58c-20.93,0 -28.73,-15.32 -28.73,-33.77l0 -9.13 28.73 0 0 -37.06z"/>
   <path class="fil0" d="M947.38 294.79l0 91.95 -47.44 0 0 -132.75 0 -14.6 0 -15.41 44.6 0 0 11.21c11.46,-11.58 27.27,-17.28 49.27,-14.62 1.21,34.86 -1.72,46.78 -17.39,46.97 -16.84,0.2 -26.42,10.24 -29.04,27.25z"/>
   <path class="fil0" d="M1032.25 160.4c15.59,0 28.23,11.9 28.23,26.58 0,14.68 -12.64,26.58 -28.23,26.58 -15.59,0 -28.23,-11.9 -28.23,-26.58 0,-14.68 12.64,-26.58 28.23,-26.58zm-25.46 63.95c25.16,0 47.61,0.28 47.61,40.46l0 121.92 -47.61 0 0 -162.38z"/>
   <path class="fil0" d="M1148.48 221.6c17.8,0 34.25,6.07 47.6,16.36 1.66,-7.18 8.13,-12.57 15.79,-12.57l30.96 0 0 161.36 -47.16 0 0 -10.96c-13.27,10.09 -29.57,16.04 -47.19,16.04 -44.6,0 -80.76,-38.1 -80.76,-85.11 0,-47 36.16,-85.11 80.76,-85.11zm47.19 74.45l0 14.47c-3.23,20 -19.64,35.22 -39.41,35.22 -22.08,0 -39.99,-19 -39.99,-42.45 0,-23.44 17.9,-42.45 39.99,-42.45 19.76,0 36.17,15.22 39.41,35.22z"/>
  </g>
 </g>
</svg>
