<?xml version="1.0" encoding="UTF-8"?>
<!DOCTYPE svg PUBLIC "-//W3C//DTD SVG 1.1//EN" "http://www.w3.org/Graphics/SVG/1.1/DTD/svg11.dtd">
<!-- Creator: CorelDRAW 2019 (64-Bit) -->
<svg xmlns="http://www.w3.org/2000/svg" xml:space="preserve" width="5.77153in" height="1.84448in" version="1.1" style="shape-rendering:geometricPrecision; text-rendering:geometricPrecision; image-rendering:optimizeQuality; fill-rule:evenodd; clip-rule:evenodd"
viewBox="0 0 1113.26 355.78"
 xmlns:xlink="http://www.w3.org/1999/xlink"
 xmlns:xodm="http://www.corel.com/coreldraw/odm/2003">
 <defs>
  <style type="text/css">
   <![CDATA[
    .fil0 {fill:#4A91DC}
    .fil1 {fill:#FBA66B}
   ]]>
  </style>
 </defs>
 <g id="Layer_x0020_1">
  <metadata id="CorelCorpID_0Corel-Layer"/>
  <g id="_2284093058368">
   <path class="fil0" d="M71.18 105.57c39.31,0 71.18,31.87 71.18,71.18 0,39.31 -31.87,71.18 -71.18,71.18 -14.84,0 -28.61,-4.54 -40.02,-12.31l0 85.11 -31.16 0 0 -143.98c0,-39.31 31.87,-71.18 71.18,-71.18zm-40.02 71.18l0 0 0 0.06c0.03,22.07 17.94,39.96 40.02,39.96 22.1,0 40.02,-17.92 40.02,-40.02 0,-22.1 -17.92,-40.02 -40.02,-40.02 -22.1,0 -40.02,17.92 -40.02,40.02z"/>
   <path class="fil0" d="M225.39 105.57c39.31,0 71.18,31.87 71.18,71.18l-31.16 0c0,-22.1 -17.92,-40.02 -40.02,-40.02 -22.1,0 -40.02,17.92 -40.02,40.02l0 0 0 0.06 0 58.81 0 3.26 -31.16 0 0 -62.13c0,-39.31 31.87,-71.18 71.18,-71.18z"/>
   <path class="fil0" d="M382.87 105.57c39.31,0 71.18,31.87 71.18,71.18l0 62.13 -31.16 0 0 -3.26c-11.4,7.77 -25.18,12.31 -40.02,12.31 -39.31,0 -71.18,-31.87 -71.18,-71.18 0,-39.31 31.87,-71.18 71.18,-71.18zm40.02 71.18l0 0c0,-22.1 -17.92,-40.02 -40.02,-40.02 -22.1,0 -40.02,17.92 -40.02,40.02 0,22.1 17.92,40.02 40.02,40.02 22.08,0 39.98,-17.88 40.02,-39.96l0 -0.06z"/>
   <path class="fil0" d="M668.63 105.57c39.31,0 71.18,31.87 71.18,71.18 0,0.31 -0.01,0.62 -0.01,0.93l-17.59 0 -13.63 0 -79.89 0c1.22,21.8 18.64,39.09 39.95,39.09 16.55,0 30.76,-10.43 36.85,-25.31l32.81 0c-6.78,32.25 -35.39,56.47 -69.66,56.47 -39.31,0 -71.18,-31.87 -71.18,-71.18 0,-39.31 31.87,-71.18 71.18,-71.18zm36.56 52.77c-6.24,-14.52 -20.26,-24.63 -36.56,-24.63 -16.3,0 -30.33,10.12 -36.56,24.63l73.13 0z"/>
   <polygon class="fil0" points="472.27,61.33 503.44,61.33 503.44,156.41 548.12,111.94 590.76,111.94 535.13,167.3 591.95,238.88 550.37,238.88 511.9,190.42 503.44,198.84 503.44,238.88 472.27,238.88 "/>
   <path class="fil0" d="M921.76 105.57l31.16 0 0 149.98c0,21.13 -17.13,38.26 -38.26,38.26 -21.13,0 -38.26,-17.13 -38.26,-38.26l45.35 0 0 -149.98z"/>
   <path class="fil1" d="M987.27 311.45c-14.67,26.44 -42.86,44.33 -75.24,44.33 -47.49,0 -86,-38.5 -86,-86 0,-10.14 1.76,-19.86 4.98,-28.89l24.61 11.11c-1.77,5.61 -2.72,11.58 -2.72,17.78 0,32.65 26.47,59.13 59.13,59.13 21.47,0 40.27,-11.45 50.63,-28.57l24.61 11.11z"/>
   <circle class="fil1" cx="826.48" cy="176.2" r="19.52"/>
   <circle class="fil1" cx="1041.25" cy="176.2" r="19.52"/>
   <path class="fil0" d="M826.66 105.57c39.31,0 71.18,31.87 71.18,71.18l-31.16 0c0,-22.1 -17.92,-40.02 -40.02,-40.02 -22.1,0 -40.02,17.92 -40.02,40.02l0 0 0 0.06 0 58.81 0 3.26 -31.16 0 0 -62.13c0,-39.31 31.87,-71.18 71.18,-71.18z"/>
   <path class="fil0" d="M1042.08 105.57c39.31,0 71.18,31.87 71.18,71.18l0 62.13 -31.16 0 0 -3.26c-11.4,7.77 -25.18,12.31 -40.02,12.31 -39.31,0 -71.18,-31.87 -71.18,-71.18 0,-39.31 31.87,-71.18 71.18,-71.18zm40.02 71.18l0 0c0,-22.1 -17.92,-40.02 -40.02,-40.02 -22.1,0 -40.02,17.92 -40.02,40.02 0,22.1 17.92,40.02 40.02,40.02 22.08,0 39.98,-17.88 40.02,-39.96l0 -0.06z"/>
   <path class="fil1" d="M101.91 19.32c18.42,0 33.35,14.93 33.35,33.35l0 29.11 -14.6 0 0 -1.53c-5.34,3.64 -11.8,5.77 -18.75,5.77 -18.42,0 -33.35,-14.93 -33.35,-33.35 0,-18.42 14.93,-33.35 33.35,-33.35zm18.75 33.35l0 0c0,-10.36 -8.4,-18.75 -18.75,-18.75 -10.36,0 -18.75,8.4 -18.75,18.75 0,10.36 8.4,18.75 18.75,18.75 10.35,0 18.73,-8.38 18.75,-18.72l0 -0.03z"/>
   <path class="fil1" d="M296.18 57.77c0,15.61 -12.65,28.26 -28.26,28.26 -15.61,0 -28.26,-12.65 -28.26,-28.26l0 -35.41 14.99 0 0 35.41 0 0c0,7.33 5.94,13.26 13.26,13.26 7.33,0 13.26,-5.94 13.26,-13.26l0 -0 0 -35.41 14.99 0 0 35.41 -0 0z"/>
   <polygon class="fil1" points="23.99,83.4 7.14,83.4 7.14,0 23.99,0 23.99,42.83 44.92,22.08 64.47,22.08 37.88,48.44 64.47,83.4 44.92,83.4 26.73,59.5 23.99,62.21 "/>
   <path class="fil1" d="M162.84 83.4l-15.33 0 0 -61.16 15.33 0 0 8.55c6.4,-6.39 14.24,-10.16 23.86,-10.65l-2.01 16.48c-10.48,0.26 -17.53,6.03 -21.85,16.2l0 30.58z"/>
   <polygon class="fil1" points="216.06,83.4 200.73,83.4 200.73,36.53 194.42,36.53 194.42,21.61 200.73,21.61 200.73,0 216.06,0 216.06,21.61 229.27,21.61 229.27,36.53 216.06,36.53 "/>
  </g>
 </g>
</svg>
