<?xml version="1.0" encoding="UTF-8"?>
<!DOCTYPE svg PUBLIC "-//W3C//DTD SVG 1.1//EN" "http://www.w3.org/Graphics/SVG/1.1/DTD/svg11.dtd">
<!-- Creator: CorelDRAW 2019 (64-Bit) -->
<svg xmlns="http://www.w3.org/2000/svg" xml:space="preserve" width="4.63915in" height="2.70444in" version="1.1" style="shape-rendering:geometricPrecision; text-rendering:geometricPrecision; image-rendering:optimizeQuality; fill-rule:evenodd; clip-rule:evenodd"
viewBox="0 0 725.36 422.85"
 xmlns:xlink="http://www.w3.org/1999/xlink"
 xmlns:xodm="http://www.corel.com/coreldraw/odm/2003">
 <defs>
  <style type="text/css">
   <![CDATA[
    .fil9 {fill:#1EA53A}
    .fil3 {fill:#27AC3B}
    .fil0 {fill:#3C4342}
    .fil1 {fill:#6EBC5E}
    .fil4 {fill:#77BC2F}
    .fil2 {fill:#89C355}
    .fil5 {fill:#EAEDEB}
    .fil8 {fill:#EDB955}
    .fil6 {fill:#FCFEFF}
    .fil7 {fill:#FDF8B3}
   ]]>
  </style>
 </defs>
 <g id="Layer_x0020_1">
  <metadata id="CorelCorpID_0Corel-Layer"/>
  <g id="_2439180858912">
   <path class="fil0" d="M244.63 42.89c22.65,0 44.27,-1.05 63.65,0.17 4.45,-24.5 25.89,-43.07 51.67,-43.07 25.83,0 47.31,18.65 51.7,43.23 16.09,-0.69 35.91,-0.33 61.85,-0.33l0 143.98c0,35.26 -28.85,64.11 -64.11,64.11l-164.75 0 0 -208.09zm73.61 1.05c15.28,1.75 28.89,5.44 40.18,12.93 12.52,-8.05 25.5,-11.55 43.21,-13.03 -3.78,-19.81 -21,-34.77 -41.69,-34.77 -20.72,0 -37.97,15.01 -41.71,34.87z"/>
   <path class="fil1" d="M250.74 48.98l0 195.89 158.64 0c31.89,0 58,-26.11 58,-58l0 -137.87c-9.96,-0.02 -19.92,-0.09 -29.88,-0.09 -9.23,0 -18.5,0.06 -27.71,0.52 -12.9,0.65 -26.19,2.09 -38.15,7.27 -3.45,1.5 -6.75,3.28 -9.91,5.31l-3.36 2.16 -3.33 -2.21c-13.68,-9.08 -31.12,-11.79 -47.19,-12.8 -18.86,-1.19 -38.11,-0.36 -57.1,-0.19z"/>
   <path class="fil2" d="M269.5 244.87l139.88 0c13.25,0 25.5,-4.51 35.3,-12.07 -10.71,-37.58 -45.3,-65.1 -86.32,-65.1 -45.3,0 -82.75,33.56 -88.86,77.17z"/>
   <path class="fil3" d="M358.36 244.87l51.02 0c31.89,0 58,-26.11 58,-58l0 -137.87c-9.96,-0.02 -19.92,-0.09 -29.88,-0.09 -9.23,0 -18.5,0.06 -27.71,0.52 -12.9,0.65 -26.19,2.09 -38.15,7.27 -3.45,1.5 -6.75,3.28 -9.91,5.31l-3.36 2.16 0 180.69z"/>
   <path class="fil4" d="M358.36 244.87l51.02 0c13.25,0 25.5,-4.51 35.3,-12.07 -10.71,-37.58 -45.3,-65.1 -86.32,-65.1l0 77.17z"/>
   <circle class="fil0" cx="307.63" cy="127.47" r="50.74"/>
   <circle class="fil5" cx="307.63" cy="127.47" r="44.54"/>
   <path class="fil6" d="M307.63 82.93c24.6,0 44.54,19.94 44.54,44.54l-0 0.38c-6.14,17.26 -22.61,29.61 -41.97,29.61 -24.6,0 -44.54,-19.94 -44.54,-44.54l0 -0.38c6.14,-17.26 22.61,-29.61 41.97,-29.61z"/>
   <path class="fil0" d="M312.78 98.43c16.31,0 29.54,13.22 29.54,29.54 0,16.31 -13.22,29.54 -29.54,29.54 -16.31,0 -29.54,-13.22 -29.54,-29.54 0,-4.08 0.83,-7.97 2.32,-11.5 2.72,4.03 7.34,6.68 12.57,6.68 8.37,0 15.16,-6.79 15.16,-15.16 0,-3.56 -1.23,-6.84 -3.29,-9.42 0.91,-0.08 1.84,-0.13 2.78,-0.13z"/>
   <circle class="fil0" cx="409.1" cy="127.47" r="50.74"/>
   <circle class="fil5" cx="409.1" cy="127.47" r="44.54"/>
   <path class="fil6" d="M409.1 82.93c20.85,0 38.35,14.33 43.2,33.67 -1.87,22.88 -21.03,40.86 -44.39,40.86 -20.85,0 -38.35,-14.33 -43.2,-33.67 1.87,-22.88 21.03,-40.86 44.39,-40.86z"/>
   <path class="fil0" d="M403.06 98.02c16.31,0 29.54,13.22 29.54,29.54 0,16.31 -13.22,29.54 -29.54,29.54 -16.31,0 -29.54,-13.22 -29.54,-29.54 0,-4.08 0.83,-7.97 2.32,-11.5 2.72,4.03 7.34,6.68 12.57,6.68 8.37,0 15.16,-6.79 15.16,-15.16 0,-3.56 -1.23,-6.84 -3.29,-9.42 0.91,-0.08 1.84,-0.13 2.78,-0.13z"/>
   <path class="fil0" d="M328.51 169.91l29.85 33.84 31.52 -32.98c-8.48,-6.47 -19.99,-14.14 -31.52,-14.3 -10.91,-0.15 -21.4,6.19 -29.85,13.45z"/>
   <path class="fil7" d="M334.81 170.43l23.68 26.84 24.79 -25.94c-7.33,-5.21 -16.34,-10.37 -24.98,-10.49 -8.44,-0.12 -16.72,4.39 -23.49,9.59z"/>
   <path class="fil8" d="M358.36 197.13l0.13 0.15 24.79 -25.94c-7.32,-5.2 -16.3,-10.35 -24.92,-10.49l0 36.29z"/>
   <path class="fil9" d="M17.49 284.1c-9.67,3.9 -15.6,8.76 -17.49,14.66l0 69.64c0,12.93 9.66,20.64 22.04,20.64l24.83 0 0 -16.26 -24.83 0c-2.39,0 -4.55,-0.95 -4.55,-4.37l0 -47.22 29.38 0 0 -15.65 -29.38 0 0 -21.42z"/>
   <path class="fil9" d="M165.97 267.27c-10.18,3.87 -13.12,7.27 -17.05,12.05l0 72.25 0 0 0 27.43c3.93,4.78 6.87,8.18 17.05,12.05l0 -38.12c6.77,-0.52 13.53,-1.34 20.32,-1.41 5.54,-0.06 6.96,3.42 7.23,7.09 0.54,7.36 0.83,14.73 1.25,22.1 5.38,5.34 11.04,9.09 16.96,11.4 0.9,-11.03 1.08,-22.67 0,-35.3 -0.87,-10.19 -5.87,-14.04 -14.43,-18.55 9.73,-8.13 15.81,-21.48 20.35,-37.03 -6.82,-0.96 -13.64,-0.88 -20.46,0.22 -3.42,13.52 -9.47,24.59 -18.45,32.92l-12.77 0 0 -27.61 -0 0 0 -39.48z"/>
   <path class="fil9" d="M317.62 336.58l0 7.5 0 39.29 0 0 0 27.43c3.93,4.78 6.87,8.18 17.05,12.05l-0 -84.33 0 0c3.37,-16.75 16.96,-20.85 29.5,-20.85 12.96,0 22.93,9.31 22.93,24.6 0,16.99 -16.77,27.52 -31.41,27.52 -6.79,0 -12.38,-2.43 -17.37,-6.95 0.27,5.59 0.54,11.17 0.81,16.76 3.47,2.96 7.31,4.89 12.05,6.15 2.78,0.57 5.65,0.86 8.6,0.86 23.64,0 42.81,-19.17 42.81,-42.81 0,-23.64 -19.17,-42.81 -42.81,-42.81 -21.07,0 -38.59,15.23 -42.15,35.28l0 0.3z"/>
   <path class="fil9" d="M589.99 352.53l0 -1.17 0 -1.2 0 -1.22 0 -1.24 0 -1.26 0 -1.28 0 -0.13 -0 -83.57c-7.42,0.48 -15.34,5.91 -17.05,11.08l0 78.05 -0 0c-3.37,16.75 -16.96,20.85 -29.5,20.85 -12.96,0 -22.93,-9.31 -22.93,-24.6 0,-16.99 16.77,-27.52 31.41,-27.52 6.79,0 12.38,2.43 17.37,6.95 -0.27,-5.59 -0.54,-11.17 -0.81,-16.76 -3.47,-2.96 -7.31,-4.89 -12.05,-6.15 -2.78,-0.57 -5.65,-0.86 -8.6,-0.86 -23.64,0 -42.81,19.17 -42.81,42.81 0,23.64 19.17,42.81 42.81,42.81 21.07,0 38.59,-15.23 42.15,-35.28l0 -0.3z"/>
   <path class="fil9" d="M609.15 303.03l0 42.67 0 0 0 27.43c3.74,4.78 6.54,8.18 16.24,12.05l-0 -80.93 -16.24 -1.22zm7.47 -28.52c5.28,0 9.56,4.28 9.56,9.56 0,5.28 -4.28,9.56 -9.56,9.56 -5.28,0 -9.56,-4.28 -9.56,-9.56 0,-5.28 4.28,-9.56 9.56,-9.56z"/>
   <path class="fil9" d="M682.39 299.61c21.2,0 35.88,12.03 41.7,28.78l1.27 59.13c-8.66,-0.75 -13.71,-2.45 -17.93,-7.22l-0.33 -48.24 -0.26 -0.19c-4.1,-9.45 -13.51,-16.06 -24.46,-16.06 -14.72,0 -26.65,11.93 -26.65,26.65 0,14.72 11.93,26.65 26.65,26.65 7.02,0 13.41,-2.72 18.17,-7.16l0.96 18.85c-5.76,2.88 -12.25,4.5 -19.13,4.5 -23.66,0 -42.84,-19.18 -42.84,-42.84 0,-23.66 21.64,-42.84 42.84,-42.84z"/>
   <path class="fil9" d="M96.41 301.13c23.62,0 42.78,19.15 42.78,42.77 0,23.62 -19.15,42.78 -42.78,42.78 -23.62,0 -42.77,-19.15 -42.77,-42.78 0,-23.62 19.15,-42.77 42.77,-42.77zm0 15.53c15.04,0 27.24,12.2 27.24,27.24 0,15.04 -12.2,27.24 -27.24,27.24 -15.04,0 -27.24,-12.2 -27.24,-27.24 0,-15.04 12.2,-27.24 27.24,-27.24z"/>
   <path class="fil9" d="M264.61 301.13c23.62,0 42.78,19.15 42.78,42.77 0,23.62 -19.15,42.78 -42.78,42.78 -23.62,0 -42.77,-19.15 -42.77,-42.78 0,-23.62 19.15,-42.77 42.77,-42.77zm0 15.53c15.04,0 27.24,12.2 27.24,27.24 0,15.04 -12.2,27.24 -27.24,27.24 -15.04,0 -27.24,-12.2 -27.24,-27.24 0,-15.04 12.2,-27.24 27.24,-27.24z"/>
   <path class="fil9" d="M451.91 301.13c23.62,0 42.78,19.15 42.78,42.77 0,1.24 -0.06,2.48 -0.16,3.69l-7.92 0 -6.18 0 -57.02 0c1.81,14.13 13.89,25.05 28.51,25.05 10.63,0 19.9,-5.77 24.88,-14.34l10.95 8.96c-7.64,11.68 -20.83,19.4 -35.83,19.4 -23.62,0 -42.77,-19.15 -42.77,-42.78 0,-23.62 19.15,-42.77 42.77,-42.77zm26.49 31.58c-4.37,-10.31 -14.58,-17.55 -26.49,-17.55 -11.91,0 -22.12,7.24 -26.49,17.55l52.97 0z"/>
  </g>
 </g>
</svg>
