<?xml version="1.0" encoding="UTF-8"?>
<!DOCTYPE svg PUBLIC "-//W3C//DTD SVG 1.1//EN" "http://www.w3.org/Graphics/SVG/1.1/DTD/svg11.dtd">
<!-- Creator: CorelDRAW 2019 (64-Bit) -->
<svg xmlns="http://www.w3.org/2000/svg" xml:space="preserve" width="4.79804in" height="1.64004in" version="1.1" style="shape-rendering:geometricPrecision; text-rendering:geometricPrecision; image-rendering:optimizeQuality; fill-rule:evenodd; clip-rule:evenodd"
viewBox="0 0 789.24 269.77"
 xmlns:xlink="http://www.w3.org/1999/xlink"
 xmlns:xodm="http://www.corel.com/coreldraw/odm/2003">
 <defs>
  <style type="text/css">
   <![CDATA[
    .fil0 {fill:#0094D9}
    .fil2 {fill:#0AAF58}
    .fil1 {fill:#93BF3E}
    .fil5 {fill:#DF2127}
    .fil3 {fill:#E20A7E}
    .fil4 {fill:#F19021}
   ]]>
  </style>
 </defs>
 <g id="Layer_x0020_1">
  <metadata id="CorelCorpID_0Corel-Layer"/>
  <g id="_2284096944912">
   <path class="fil0" d="M6.89 104.03c6.12,52.01 3.5,100.55 -6.61,145.71 -1.34,5.98 2.32,8.12 5.63,8.17l154.88 2.37c3.71,0.06 7.58,-1.49 6.22,-9.24 -8.04,-46.12 -11.64,-95.6 -0.11,-151.61 1.85,-8.97 -2.23,-10.39 -6.21,-10.21l-147.7 6.63c-3.4,0.15 -6.83,2.04 -6.1,8.19zm113.1 14.78c3.34,0 6.05,2.71 6.05,6.05 0,3.34 -2.71,6.05 -6.05,6.05 -3.34,0 -6.05,-2.71 -6.05,-6.05 0,-3.34 2.71,-6.05 6.05,-6.05zm-71.38 -0.92c3.34,0 6.05,2.71 6.05,6.05 0,3.34 -2.71,6.05 -6.05,6.05 -3.34,0 -6.05,-2.71 -6.05,-6.05 0,-3.34 2.71,-6.05 6.05,-6.05zm76.95 29.59c-0.44,22.6 -18.89,40.79 -41.6,40.79 -22.98,0 -41.61,-18.63 -41.61,-41.61 0,-0.51 0.01,-1.01 0.03,-1.51 0.24,-3.04 3.67,-4.68 6.22,-4.56 2.55,0.12 5.38,2.24 5.38,5.45l0 0c-0,0.21 -0.01,0.42 -0.01,0.62 0,16.56 13.42,29.98 29.99,29.98 16.56,0 29.99,-13.42 29.99,-29.98 0,-3.87 3.48,-5.1 6.08,-4.9 2.64,0.21 5.49,2.24 5.54,5.72z"/>
   <path class="fil1" d="M82.39 14.65l-6.08 -8.13c-3.66,-4.9 0.68,-4.08 6.23,-1.71 0.02,-2.76 1.55,-4.5 4.92,-4.77 3.62,-0.29 5.22,1.18 5.62,3.52 5.73,-4.07 8.03,-3.8 6.08,0.9l-4.17 10.04 -12.6 0.15z"/>
   <path class="fil2" d="M71.75 30.53c-3.35,-6.65 -4.1,-13.98 -2.26,-21.97l14.19 4.46c3.1,-2.47 6.32,-2.72 9.67,-0.5l13.31 -7.34c2.51,7.26 2.89,14.61 1.38,22.03l-36.28 3.33z"/>
   <path class="fil1" d="M69.57 30.07l14.01 -7.79c4.14,2.75 7.81,2.53 10.93,-1.1l14.96 4.71c2.05,0.65 2.85,3.56 3.03,5.7l1.41 16.85 -13.93 20.72 -14.3 -0.26 -15.83 -15.19 -2.17 -18.39c-0.25,-2.1 -0.03,-4.18 1.89,-5.25z"/>
   <path class="fil3" d="M98.42 48.27l-12 40.27 77.01 -2.79 5.36 -19.6c0.95,-3.49 -1.24,-5.88 -3.64,-6.53l-59.87 -16.28c-2.71,-0.74 -5.49,0.34 -6.85,4.93z"/>
   <path class="fil4" d="M98.16 88.12l-87.84 3.98 -4.39 -21.13c-0.52,-2.48 0.38,-5.48 4.29,-6.28l74.16 -15.06c3.84,-0.78 6.49,0.49 7.32,4.81l6.46 33.68z"/>
   <path class="fil4" d="M115.37 87.5l18.9 -0.68c3.01,-10.53 6.02,-21.07 9.02,-31.6 12.59,-0.02 25.4,-0.72 19.31,-10.72 -4.91,-8.07 -14.03,-3.31 -23.26,4.31 -1.53,-2.02 -3.66,-2.74 -6.68,-1.54 -5.24,-13.74 -12.17,-18.73 -19.26,-13.14 -6.23,4.91 -1.38,11.1 12.66,16.64l-10.69 36.74zm30.99 -37.87c5.55,-3.92 10.43,-5.86 11.95,-2.07 1.45,3.62 -4.55,3.45 -11.95,2.07zm-19.79 -4.21c-2.88,-6.15 -6.16,-10.26 -9.36,-7.71 -3.05,2.43 2.25,5.25 9.36,7.71z"/>
   <path class="fil5" d="M69.39 89.42c-2.39,-11.76 -4.78,-23.53 -7.17,-35.29 10.75,-7.12 16.72,-14.2 7.94,-19.02 -10.37,-5.7 -16.09,4.21 -20.33,17.24 -2.3,-0.39 -4.3,0.12 -6.05,1.32 -11.16,-12.59 -20.51,-15.57 -26.25,-7.16 -5.64,8.27 3.44,12.14 15.99,14.08l6.52 30.17 29.34 -1.33zm-32.44 -34.62c-5.92,-6.13 -11.08,-9.37 -13.81,-5.65 -3.02,4.12 4.55,5.25 13.81,5.65zm20.08 -4.14c2.27,-7.33 5.07,-12.24 9.35,-10.35 3.79,2.01 -0.71,5.59 -9.35,10.35z"/>
   <path class="fil0" d="M193.41 65.61c10.93,-11.91 24.24,-18.81 41,-18.38l-1.76 135.84c-0.27,20.51 10.55,49.81 36.16,49.81 24.9,0 39.16,-26.51 39.16,-46.99 0,-33.83 -34.01,-58.63 -65.77,-46.07 2.67,-14.41 10.29,-25.96 24.1,-33.94 46.28,0.22 81.61,33.99 81.61,79.6 0,42.38 -30.5,76.32 -79.64,76.32 -50.92,0 -76.5,-43.99 -76.5,-80.58l1.64 -115.61z"/>
   <path class="fil0" d="M502.69 70.19c10.93,-11.91 24.24,-18.81 41,-18.38l-1.76 135.84c-0.27,20.51 10.55,49.81 36.16,49.81 24.9,0 39.16,-26.51 39.16,-46.99 0,-33.83 -34.01,-58.63 -65.77,-46.07 2.67,-14.41 10.29,-25.96 24.1,-33.94 46.28,0.22 81.61,33.99 81.61,79.6 0,42.38 -30.5,76.32 -79.64,76.32 -50.92,0 -76.5,-43.99 -76.5,-80.58l1.64 -115.6z"/>
   <path class="fil0" d="M414.83 7.18l-2.89 237.52c-10.83,14.19 -25.02,19.66 -41.6,18.89l3.4 -237.04c10.28,-13.29 23.79,-20.12 41.09,-19.38z"/>
   <path class="fil0" d="M724.01 11.74l-2.89 237.52c-10.83,14.19 -25.02,19.66 -41.6,18.89l3.4 -237.04c10.28,-13.29 23.79,-20.12 41.09,-19.38z"/>
   <path class="fil0" d="M478.16 110.36l-1.65 135.74c-10.83,14.19 -25.02,19.66 -41.6,18.89l2.16 -135.26c10.28,-13.29 23.79,-20.12 41.09,-19.38z"/>
   <circle class="fil0" cx="459" cy="71.75" r="20.63"/>
   <path class="fil0" d="M787.77 115.07l-1.65 135.74c-10.83,14.19 -25.02,19.66 -41.6,18.89l2.16 -135.26c10.28,-13.29 23.79,-20.12 41.09,-19.38z"/>
   <circle class="fil0" cx="768.61" cy="76.45" r="20.63"/>
  </g>
 </g>
</svg>
