<?xml version="1.0" encoding="UTF-8"?>
<!DOCTYPE svg PUBLIC "-//W3C//DTD SVG 1.1//EN" "http://www.w3.org/Graphics/SVG/1.1/DTD/svg11.dtd">
<!-- Creator: CorelDRAW 2019 (64-Bit) -->
<svg xmlns="http://www.w3.org/2000/svg" xml:space="preserve" width="6.39014in" height="1.33235in" version="1.1" style="shape-rendering:geometricPrecision; text-rendering:geometricPrecision; image-rendering:optimizeQuality; fill-rule:evenodd; clip-rule:evenodd"
viewBox="0 0 1296.07 270.23"
 xmlns:xlink="http://www.w3.org/1999/xlink"
 xmlns:xodm="http://www.corel.com/coreldraw/odm/2003">
 <defs>
  <style type="text/css">
   <![CDATA[
    .fil1 {fill:#01FF87}
    .fil0 {fill:white}
   ]]>
  </style>
 </defs>
 <g id="Layer_x0020_1">
  <metadata id="CorelCorpID_0Corel-Layer"/>
  <g id="_2439030615376">
   <path class="fil0" d="M-0 0c15.77,0 35.69,8.92 35.69,35.56l0 47.02c12.78,-8.58 31.67,-16.04 57.8,-7.89 29.81,9.3 51.06,37.1 51.06,67.82l0 72.77 -35.92 0 0 -72.77c0,-18.03 -15.5,-35.71 -35.42,-35.71 -22.6,0 -37.52,20.85 -37.52,31.55l0 76.93 -35.69 0 0 -215.28z"/>
   <path class="fil0" d="M234.93 71.67c39.66,0 71.81,32.15 71.81,71.81l0 71.81 -35.42 0 0 -9.89 0 -61.91c0,-20.09 -16.29,-36.38 -36.38,-36.38 -20.09,0 -36.38,16.29 -36.38,36.38 0,20.09 16.29,36.38 36.38,36.38l18.6 0 0 32.52c-6.2,1.89 -11.74,2.91 -18.6,2.91 -39.66,0 -71.81,-32.15 -71.81,-71.81 0,-39.66 32.15,-71.81 71.81,-71.81z"/>
   <path class="fil0" d="M397.77 71.67c39.66,0 71.81,32.15 71.81,71.81 0,39.66 -32.15,71.81 -71.81,71.81 -6.53,0 -12.35,-1.06 -17.73,-3.04l0 -32.38 17.73 0c20.09,0 36.38,-16.29 36.38,-36.38 0,-20.09 -16.29,-36.38 -36.38,-36.38 -20.07,0 -36.35,16.26 -36.38,36.32l0 0.12 0 0.18 -0 0 0 61.67 0 9.89 -35.42 0 0 -71.71 -0 -0.1 0 -0.06 0 -143.41c17.42,0 35.42,13.21 35.42,36.64l0 44.92c10.67,-6.28 23.1,-9.89 36.38,-9.89z"/>
   <path class="fil0" d="M487.77 71.67c17.42,0 35.42,13.21 35.42,36.64l0 106.97 -35.42 0 0 -143.61z"/>
   <path class="fil0" d="M542.34 215.28c0,-17.42 13.21,-35.42 36.64,-35.42l24.18 0 0 0c5.16,0 9.33,-4.18 9.33,-9.33 0,-5.16 -4.18,-9.33 -9.33,-9.33l-15.62 0 0 -0c-24.72,0 -44.76,-20.04 -44.76,-44.76 0,-24.72 20.04,-44.76 44.76,-44.76l62.07 0c0,17.42 -13.21,35.42 -36.64,35.42l-25.42 0c-5.16,0 -9.33,4.18 -9.33,9.33 0,5.16 4.18,9.33 9.33,9.33l0 0 15.62 0c24.72,0 44.76,20.04 44.76,44.76 0,24.72 -20.04,44.76 -44.76,44.76l0 -0 -60.82 0z"/>
   <path class="fil0" d="M668.85 0c17.42,0 35.42,13.21 35.42,36.64l0 81.35 30.74 -30.23c16.35,-16.08 36.84,-16.09 66.88,-16.09l-57.93 56.97 46.17 46.38c10.9,10.95 14.52,23.83 15.77,40.26l-25.68 0 -61.52 -61.8 -14.43 14.2 0 47.6 -35.42 0 0 -215.28z"/>
   <path class="fil0" d="M877.99 71.67c29.25,0 54.42,17.5 65.61,42.59 1.52,3.15 2.73,6.03 3.77,9.44l-60.48 35.13c-2.62,1.52 -5.66,2.39 -8.9,2.39 -9.8,0 -17.75,-7.95 -17.75,-17.75 0,-6.4 3.38,-12 8.46,-15.13l0.01 -0c0.24,-0.15 0.49,-0.29 0.74,-0.43l27.21 -15.84c-5.46,-3.25 -11.85,-5.13 -18.67,-5.13 -20.17,0 -36.53,16.35 -36.53,36.53 0,20.17 16.35,36.53 36.53,36.53l0 -0.15 34.74 0c23.44,0 36.64,18 36.64,35.42l-71.39 0 0 0c-39.66,0 -71.81,-32.15 -71.81,-71.81 0,-39.66 32.15,-71.81 71.81,-71.81z"/>
   <path class="fil0" d="M968.05 215.28l35.92 0 0 -78.24c0,-15.62 21.8,-29.94 37.89,-29.94l34.06 0c0,-17.42 -13.21,-35.42 -36.64,-35.42 -13.18,0 -26.18,3.64 -35.31,10.21l0 -10.21 -35.92 0 0 143.61z"/>
   <path class="fil0" d="M1133.8 63.71c-17.42,0 -35.42,13.21 -35.42,36.64l0 105.84c0,13.4 -11.42,28.52 -26,28.52 -16.42,0 -28.78,-10.27 -29.48,-27.31 -24.65,1.64 -32.05,29.31 -17.15,44.48 18.48,18.3 48.95,25.34 76.73,9.76 19.63,-11.01 31.33,-31.72 31.33,-55.45l0 -142.49z"/>
   <circle class="fil1" cx="505.92" cy="35.64" r="18.29"/>
   <circle class="fil1" cx="1116.03" cy="27.32" r="18.29"/>
   <path class="fil0" d="M1224.27 62.96c39.66,0 71.81,32.15 71.81,71.81l0 71.81 -35.42 0 0 -9.89 0 -61.91c0,-20.09 -16.29,-36.38 -36.38,-36.38 -20.09,0 -36.38,16.29 -36.38,36.38 0,20.09 16.29,36.38 36.38,36.38l18.6 0 0 32.52c-6.2,1.89 -11.74,2.91 -18.6,2.91 -39.66,0 -71.81,-32.15 -71.81,-71.81 0,-39.66 32.15,-71.81 71.81,-71.81z"/>
  </g>
 </g>
</svg>
