<?xml version="1.0" encoding="UTF-8"?>
<!DOCTYPE svg PUBLIC "-//W3C//DTD SVG 1.1//EN" "http://www.w3.org/Graphics/SVG/1.1/DTD/svg11.dtd">
<!-- Creator: CorelDRAW 2019 (64-Bit) -->
<svg xmlns="http://www.w3.org/2000/svg" xml:space="preserve" width="5.52818in" height="1.74914in" version="1.1" style="shape-rendering:geometricPrecision; text-rendering:geometricPrecision; image-rendering:optimizeQuality; fill-rule:evenodd; clip-rule:evenodd"
viewBox="0 0 1000.1 316.44"
 xmlns:xlink="http://www.w3.org/1999/xlink"
 xmlns:xodm="http://www.corel.com/coreldraw/odm/2003">
 <defs>
  <style type="text/css">
   <![CDATA[
    .fil0 {fill:#EE4E2C}
   ]]>
  </style>
 </defs>
 <g id="Layer_x0020_1">
  <metadata id="CorelCorpID_0Corel-Layer"/>
  <g id="_2439175530624">
   <path class="fil0" d="M6.5 72.65l61.83 0c1.54,-40.43 30.22,-72.65 65.39,-72.65 35.16,0 63.85,32.23 65.39,72.65l61.24 0c3.58,0 6.64,2.93 6.5,6.5l-7.54 191.09c-0.66,16.66 -13.64,30.32 -30.32,30.32l-95.57 0 -95.57 0c-16.67,0 -29.66,-13.66 -30.32,-30.32l-7.54 -191.09c-0.14,-3.57 2.92,-6.5 6.5,-6.5zm170.79 51.59c-2.36,3.84 -4.72,7.67 -7.08,11.51 -12.56,-8.69 -22.76,-12.42 -38.14,-12.42 -13.16,0 -29.59,9.04 -29.59,24.16 0,15.87 16.41,21.53 38.57,29.72 23.09,8.53 42.53,20.53 42.53,42.57 0,24.16 -21.18,41.59 -45.53,41.59 -22.69,0 -41.47,-6.48 -56.32,-20.42 2.86,-3.93 5.72,-7.85 8.57,-11.78 12.46,11.17 26.02,17.53 45.51,17.53 14.78,0 32.79,-7.24 32.79,-25.82 0,-15.63 -18.7,-26.11 -37.22,-31.38 -25.37,-7.22 -44.28,-20.86 -44.28,-42.12 0,-20.95 20.24,-37.97 45.51,-37.97 16.55,0 32.05,6.43 44.68,14.84zm-91.29 -51.59l47.42 0 48.01 0c-1.45,-30.65 -22.26,-54.97 -47.72,-54.97 -25.46,0 -46.27,24.31 -47.72,54.97z"/>
   <path class="fil0" d="M416.61 131.48l0.07 -0.11 4.31 -6.61c1.84,-2.82 1.3,-5.5 -1.15,-7.19 -15.1,-10.02 -28.82,-12.86 -45,-12.86 -24.4,0 -49.01,13.67 -49.01,40.91 0,24.84 23.18,38.77 48.77,45.11 18.18,6.58 37.46,15.82 37.46,31.13 0,17.06 -19.47,25.1 -35.38,25.1 -16.29,0 -29.99,-6.59 -40.76,-15.12l0 0 -0.07 -0.06 -0.04 -0.03 -0.11 -0.09c-2.35,-1.8 -5.02,-1.76 -6.88,0.72l-6.07 8.06c-1.76,2.37 -1.29,5.16 0.91,6.7 15.18,10.46 31.05,18.01 53.63,18.01 30.11,0 53.56,-16.07 53.56,-44.86 0,-26.22 -25.82,-40.38 -49.41,-47.23 -19.94,-5.22 -36.11,-14.4 -36.11,-27.53 0,-14.44 14.91,-23.4 29.72,-23.4 14.98,0 24.73,3.83 34.69,10.44l0.01 0.01 0.2 0.13c2.94,1.91 5.22,0.93 6.67,-1.21z"/>
   <path class="fil0" d="M449.19 103.83l11.72 0c2.3,0 4.19,1.88 4.19,4.19l0 65.92c14.21,-10.15 29.89,-12.45 46.65,-5.63 17.57,7.16 29.36,26.08 29.36,43.64l0 49.13c0,2.3 -1.88,4.19 -4.19,4.19l-11.72 0c-2.3,0 -4.19,-1.88 -4.19,-4.19l0 -49.13c0,-15.82 -7.36,-25.22 -22.33,-28.17 -17.83,-3.51 -28.82,6.1 -33.58,20.3l0 56.99c0,2.3 -1.88,4.19 -4.19,4.19l-11.72 0c-2.3,0 -4.19,-1.88 -4.19,-4.19l0 -153.06c0,-2.3 1.88,-4.19 4.19,-4.19z"/>
   <path class="fil0" d="M606.82 164.4c27.96,0 50.63,22.67 50.63,50.63 0,27.96 -22.67,50.63 -50.63,50.63 -27.96,0 -50.63,-22.67 -50.63,-50.63 0,-27.96 22.67,-50.63 50.63,-50.63zm0 18.6c17.69,0 32.04,14.34 32.04,32.04 0,17.69 -14.34,32.04 -32.04,32.04 -17.69,0 -32.04,-14.34 -32.04,-32.04 0,-17.69 14.34,-32.04 32.04,-32.04z"/>
   <path class="fil0" d="M724.17 164.4c27.96,0 50.63,22.67 50.63,50.63 0,27.96 -22.67,50.63 -50.63,50.63 -11.72,0 -22.51,-3.99 -31.1,-10.67l0 56.36c0,2.8 -2.29,5.09 -5.09,5.09l-9.93 0c-2.8,0 -5.09,-2.29 -5.09,-5.09l0 -142.96c0,-2.8 2.29,-5.09 5.09,-5.09l9.93 0c2.8,0 5.09,2.29 5.09,5.09l0 6.68c8.58,-6.69 19.37,-10.67 31.1,-10.67zm0 18.6c17.69,0 32.04,14.34 32.04,32.04 0,17.69 -14.34,32.04 -32.04,32.04 -17.69,0 -32.04,-14.34 -32.04,-32.04 0,-17.69 14.34,-32.04 32.04,-32.04z"/>
   <path class="fil0" d="M839.27 164.4c27,0 48.89,22.67 48.89,50.63 -0.13,3.76 -2.42,6.32 -6.43,6.32l-3.82 0 -8.31 0 -60.66 0c2.83,14.67 15.33,25.72 30.33,25.72 12.78,0 24.13,-2.46 33.29,-10.17l0 0 0.03 -0.03 0.3 -0.26c2.21,-1.75 4.62,-1.23 6.04,0.92l0.01 0.01 0.01 0.01 5.11 7.78c2.01,3.06 1.83,5.6 -1.14,7.9 -12.79,9.24 -27.52,12.43 -43.65,12.43 -27,0 -48.89,-22.67 -48.89,-50.63 0,-27.96 21.89,-50.63 48.89,-50.63zm28.87 39.11c-4.47,-12 -15.71,-20.51 -28.87,-20.51 -13.16,0 -24.4,8.51 -28.87,20.51l57.74 0z"/>
   <path class="fil0" d="M951.21 164.4c27,0 48.89,22.67 48.89,50.63 -0.13,3.76 -2.42,6.32 -6.43,6.32l-3.82 0 -8.31 0 -60.66 0c2.83,14.67 15.33,25.72 30.33,25.72 12.78,0 24.13,-2.46 33.29,-10.17l0 0 0.03 -0.03 0.3 -0.26c2.21,-1.75 4.62,-1.23 6.04,0.92l0.01 0.01 0.01 0.01 5.11 7.78c2.01,3.06 1.83,5.6 -1.14,7.9 -12.79,9.24 -27.52,12.43 -43.65,12.43 -27,0 -48.89,-22.67 -48.89,-50.63 0,-27.96 21.89,-50.63 48.89,-50.63zm28.87 39.11c-4.47,-12 -15.71,-20.51 -28.87,-20.51 -13.16,0 -24.4,8.51 -28.87,20.51l57.74 0z"/>
  </g>
 </g>
</svg>
